<?xml version="1.0" standalone="no"?>
<!DOCTYPE svg PUBLIC "-//W3C//DTD SVG 20010904//EN"
 "http://www.w3.org/TR/2001/REC-SVG-20010904/DTD/svg10.dtd">
<svg version="1.0" xmlns="http://www.w3.org/2000/svg"
 width="1080.000000pt" height="1080.000000pt" viewBox="0 0 1080.000000 1080.000000"
 preserveAspectRatio="xMidYMid meet">
<metadata>
Created by potrace 1.16, written by Peter Selinger 2001-2019
</metadata>
<g transform="translate(0.000000,1080.000000) scale(0.100000,-0.100000)"
fill="#000000" stroke="none">
<path d="M4990 8512 l-45 -18 -3 -352 c-1 -201 -6 -352 -11 -352 -5 0 -100
123 -211 273 -112 149 -206 276 -210 281 -5 4 -30 1 -58 -8 l-49 -17 -6 -121
c-4 -67 -7 -216 -8 -332 -1 -116 -4 -221 -8 -234 -5 -20 -35 16 -215 261
l-209 285 -59 -20 c-52 -18 -57 -22 -45 -37 159 -223 513 -691 521 -690 6 0
34 8 61 17 l50 17 6 245 c3 135 7 294 8 354 l1 109 206 -274 c113 -151 209
-278 213 -282 5 -5 33 -1 64 9 l54 17 7 66 c9 94 8 821 -1 820 -5 0 -28 -8
-53 -17z"/>
<path d="M6241 8408 c-5 -13 -77 -198 -161 -411 -83 -214 -150 -390 -148 -392
2 -2 24 -13 50 -24 l47 -20 17 46 18 45 22 -44 c46 -90 141 -147 259 -155 130
-9 238 57 301 184 25 51 28 69 29 148 0 78 -4 97 -27 141 -74 141 -255 209
-400 149 -12 -5 0 35 47 155 55 140 61 162 47 167 -9 3 -32 12 -51 19 -42 18
-40 18 -50 -8z m190 -422 c86 -36 131 -104 131 -195 -1 -134 -92 -231 -217
-231 -128 0 -226 107 -212 231 10 85 64 165 132 195 40 18 124 17 166 0z"/>
<path d="M5503 8266 c-88 -28 -157 -90 -196 -175 -15 -35 -21 -68 -21 -136 -1
-79 2 -97 27 -147 33 -67 80 -111 157 -147 48 -23 68 -26 155 -26 102 0 154
15 209 59 19 15 18 16 -7 54 l-26 40 -58 -30 c-52 -27 -65 -29 -129 -25 -80 4
-148 36 -182 85 -20 27 -45 102 -37 110 4 5 416 -25 479 -34 l38 -6 -3 84 c-3
70 -9 95 -34 143 -65 128 -231 195 -372 151z m209 -115 c46 -32 79 -81 85
-128 l5 -38 -198 15 c-146 11 -199 18 -198 28 1 6 2 19 3 27 2 23 72 96 106
112 48 21 155 13 197 -16z"/>
<path d="M7119 7475 c-167 -152 -304 -282 -304 -290 0 -24 276 -316 336 -355
171 -110 373 -87 520 59 135 135 161 318 69 489 -24 46 -190 242 -299 355 -16
17 -31 5 -322 -258z m482 -77 c49 -62 79 -144 79 -216 0 -175 -189 -334 -358
-302 -99 18 -148 53 -281 199 l-81 89 232 211 233 212 69 -73 c38 -40 86 -94
107 -120z"/>
<path d="M3222 7671 c-18 -22 -32 -43 -31 -48 0 -4 57 -57 126 -118 l125 -110
-50 -6 c-96 -12 -182 -82 -230 -189 -71 -153 2 -328 173 -418 70 -37 187 -38
260 -3 104 52 174 150 183 259 l5 63 34 -33 34 -33 34 40 c19 22 33 43 32 46
-2 8 -654 589 -660 589 -2 0 -18 -18 -35 -39z m335 -390 c79 -41 133 -122 133
-201 0 -76 -53 -160 -125 -197 -41 -22 -131 -21 -175 2 -48 24 -98 73 -122
119 -16 31 -19 53 -16 102 5 84 41 138 118 177 63 33 121 32 187 -2z"/>
<path d="M2935 6770 c-77 -24 -151 -123 -175 -232 -12 -54 -8 -95 15 -150 7
-17 5 -17 -29 -3 -19 8 -39 15 -44 15 -10 0 -42 -64 -42 -84 0 -12 567 -274
573 -265 1 2 12 25 24 51 27 56 46 40 -160 132 -81 36 -161 75 -178 86 -91 65
-91 226 0 303 68 57 108 51 325 -47 94 -42 175 -76 181 -76 6 0 20 22 32 49
l21 50 -197 87 c-206 91 -272 107 -346 84z"/>
<path d="M7623 6729 c-62 -24 -146 -97 -174 -151 -11 -21 -24 -62 -29 -90 -26
-137 59 -316 180 -378 l40 -20 21 42 c21 40 21 43 4 53 -41 23 -98 81 -117
119 -32 62 -36 154 -9 209 22 45 46 73 69 79 8 2 49 -82 113 -227 55 -126 102
-231 104 -233 2 -2 32 11 66 29 113 60 178 178 166 297 -12 119 -104 242 -204
276 -64 22 -166 20 -230 -5z m185 -91 c113 -28 182 -167 136 -276 -17 -41 -61
-92 -80 -92 -10 0 -164 337 -164 360 0 7 13 12 53 19 5 0 29 -4 55 -11z"/>
<path d="M7887 5979 l-288 -181 7 -57 c3 -31 7 -57 8 -58 1 -2 142 -40 312
-86 170 -47 321 -88 333 -92 24 -7 24 -7 18 46 -4 29 -11 56 -18 59 -6 4 -125
38 -264 75 -140 38 -252 72 -250 76 3 4 101 66 218 138 116 72 218 135 226
140 10 7 12 22 7 65 -4 31 -10 56 -14 56 -4 0 -137 -82 -295 -181z"/>
<path d="M2758 6037 c-137 -39 -218 -156 -218 -317 0 -170 139 -300 321 -302
161 -1 278 92 315 251 25 104 15 187 -32 268 l-25 43 -39 -26 c-22 -15 -40
-28 -40 -30 0 -1 10 -20 23 -41 33 -57 32 -170 -4 -238 -30 -59 -89 -104 -146
-112 l-39 -5 32 253 c18 140 31 256 28 258 -11 12 -133 10 -176 -2z m82 -114
c-1 -42 -47 -373 -52 -379 -12 -11 -79 28 -107 64 -68 82 -57 217 23 285 52
45 136 63 136 30z"/>
<path d="M7840 5417 c-146 -41 -233 -166 -234 -337 -1 -87 10 -129 46 -182 23
-34 35 -35 72 -5 l28 23 -21 41 c-43 85 -35 196 19 272 47 65 159 109 160 64
1 -10 -12 -123 -27 -250 -15 -128 -23 -236 -19 -240 4 -5 40 -8 79 -8 179 2
307 132 307 314 0 99 -23 156 -89 221 -84 83 -213 118 -321 87z m219 -138 c89
-49 124 -175 76 -269 -29 -55 -112 -110 -166 -110 -18 0 -20 4 -16 33 4 17 13
97 22 177 23 214 19 206 84 169z"/>
<path d="M2780 5295 c0 -26 16 -185 25 -261 l6 -41 47 5 c26 2 48 5 48 6 1 0
-4 60 -12 131 -7 72 -13 142 -13 158 -1 26 -3 27 -51 27 -47 0 -50 -2 -50 -25z"/>
<path d="M3111 4964 l-31 -26 25 -29 c48 -58 41 -129 -17 -160 -21 -11 -361
-110 -364 -106 0 1 -11 39 -24 85 l-23 84 -36 -7 c-20 -4 -40 -11 -45 -15 -6
-6 -1 -39 12 -84 12 -41 22 -78 22 -84 0 -5 -30 -17 -66 -27 -45 -12 -64 -22
-60 -31 3 -7 10 -31 16 -53 6 -23 14 -41 19 -41 4 0 30 7 57 15 27 8 54 15 61
15 6 0 17 -23 24 -50 10 -37 17 -49 28 -46 9 3 29 8 45 12 26 6 28 9 21 43
-15 78 -27 69 172 125 109 32 197 63 221 78 90 60 94 212 9 306 -26 28 -29 28
-66 -4z"/>
<path d="M7518 4710 c-9 -27 -13 -52 -10 -54 16 -9 834 -278 836 -274 3 3 36
99 36 104 0 3 -827 274 -837 274 -5 0 -16 -22 -25 -50z"/>
<path d="M3135 4453 c-197 -113 -264 -171 -284 -246 -8 -26 -11 -65 -8 -86 14
-107 108 -229 194 -254 l46 -14 -36 -22 c-21 -12 -37 -25 -37 -28 0 -4 12 -26
26 -50 24 -42 27 -43 47 -30 12 7 130 76 262 152 132 76 245 143 252 149 9 8
5 22 -17 58 l-29 47 -163 -95 c-170 -98 -202 -110 -270 -101 -82 11 -158 106
-158 199 0 71 39 108 231 219 88 50 162 95 165 100 4 7 -42 99 -50 99 -1 0
-78 -44 -171 -97z"/>
<path d="M7492 4444 c-58 -22 -146 -104 -176 -167 -41 -84 -51 -152 -32 -226
26 -101 80 -166 186 -222 38 -20 59 -24 135 -24 81 0 95 3 144 30 61 34 111
88 149 160 19 38 26 70 30 133 4 77 2 87 -27 147 -35 70 -86 121 -160 156 -59
30 -186 36 -249 13z m193 -118 c151 -71 188 -221 83 -340 -85 -98 -223 -98
-322 0 -67 66 -82 154 -42 240 52 112 168 153 281 100z"/>
<path d="M6932 4107 c-17 -18 -32 -37 -32 -42 1 -6 48 -59 105 -120 l104 -110
-53 -6 c-76 -9 -137 -42 -195 -104 -58 -65 -81 -124 -81 -215 0 -88 39 -169
115 -239 125 -113 296 -113 421 1 64 59 93 110 101 179 l6 50 33 -32 34 -33
35 34 c19 19 35 37 35 41 0 11 -571 623 -584 627 -6 1 -26 -12 -44 -31z m288
-403 c63 -42 110 -123 110 -189 -1 -122 -95 -215 -218 -215 -105 0 -211 102
-220 213 -14 173 183 289 328 191z"/>
<path d="M3559 3857 c-91 -34 -165 -103 -206 -194 -21 -46 -25 -66 -21 -131 4
-94 30 -153 96 -219 130 -130 318 -139 445 -23 108 99 144 229 97 352 -28 75
-104 159 -176 194 -67 32 -178 42 -235 21z m220 -130 c22 -15 53 -46 68 -69
24 -35 28 -52 28 -108 0 -57 -5 -74 -30 -115 -45 -73 -101 -108 -179 -113 -75
-5 -125 16 -175 74 -41 46 -51 73 -51 137 0 89 59 170 152 212 51 23 137 15
187 -18z"/>
<path d="M4282 3383 c-21 -38 -62 -109 -91 -160 -58 -103 -102 -147 -161 -163
-43 -12 -106 -1 -147 26 -20 13 -23 11 -48 -33 -25 -45 -25 -48 -8 -60 43 -32
164 -42 218 -18 17 8 16 4 -8 -37 l-26 -45 49 -27 48 -26 78 137 c42 76 112
201 156 277 43 77 77 140 76 141 -2 1 -24 14 -50 28 l-47 27 -39 -67z"/>
<path d="M6425 3426 c-98 -31 -171 -84 -217 -155 -38 -61 -36 -76 13 -95 23
-9 43 -16 44 -14 1 2 10 20 20 41 35 75 128 127 226 127 68 0 138 -31 159 -71
10 -18 -5 -28 -215 -131 -148 -72 -225 -116 -225 -126 0 -28 62 -113 108 -148
125 -95 302 -77 418 43 189 194 33 546 -240 542 -28 0 -69 -6 -91 -13z m303
-332 c2 -51 -1 -65 -26 -105 -53 -82 -163 -120 -250 -83 -38 15 -92 61 -92 77
0 10 341 177 355 173 6 -1 11 -29 13 -62z"/>
<path d="M5963 3247 c-26 -6 -43 -16 -43 -24 0 -8 16 -84 35 -169 19 -84 35
-174 35 -200 0 -86 -52 -154 -136 -176 -31 -9 -43 -17 -39 -26 3 -8 8 -31 11
-53 4 -21 12 -39 19 -39 6 0 40 14 74 31 47 24 70 43 91 75 l28 44 11 -45 c12
-49 20 -52 82 -32 l36 12 -70 308 c-40 173 -75 306 -81 306 -6 -1 -30 -6 -53
-12z"/>
<path d="M4870 3060 c-25 -88 -49 -160 -55 -160 -6 0 -96 24 -200 54 -104 30
-192 52 -195 50 -7 -7 -30 -87 -26 -91 2 -2 90 -29 197 -59 107 -31 196 -58
198 -60 9 -8 -72 -274 -83 -274 -6 0 -107 27 -224 61 -117 33 -216 59 -218 56
-3 -3 -11 -25 -19 -50 l-13 -44 276 -78 c153 -43 281 -78 286 -79 6 -1 185
604 230 781 5 20 0 24 -46 38 -28 8 -54 15 -57 15 -4 0 -26 -72 -51 -160z"/>
</g>
</svg>
